PathFileType	4	(X/Y/Z)	/Users/itak/Documents/Research/Walk-IL/dataset/trc/00414_00012.trc
DataRate	CameraRate	NumFrames	NumMarkers	Units	OrigDataRate	OrigDataStartFrame	OrigNumFrames
100.000000	100.000000	4	53	mm	100.000000	216	433
Frame#	Time	RPSI			LPSI			L3			STRN			T10			C7			CLAV			RBAK			LBAK			LSHO			LUPA			LAEL			LAOL			LWTS			LWPS			LFRA			LIFD			LHPS			LHTS			RSHO			RUPA			RAEL			RAOL			RWTS			RWPS			RFRA			RIFD			RHTS			RHPS			RBHD			LFHD			RFHD			LBHD			LHIP			RHIP			RASI			LASI			LKNE			LTHI			LANK			LTIP			LTOE			LMT1			LMT5			LHEE			RKNE			RTHI			RANK			RTIP			RTOE			RMT1			RMT5			RHEE			
		X1	Y1	Z1	X2	Y2	Z2	X3	Y3	Z3	X4	Y4	Z4	X5	Y5	Z5	X6	Y6	Z6	X7	Y7	Z7	X8	Y8	Z8	X9	Y9	Z9	X10	Y10	Z10	X11	Y11	Z11	X12	Y12	Z12	X13	Y13	Z13	X14	Y14	Z14	X15	Y15	Z15	X16	Y16	Z16	X17	Y17	Z17	X18	Y18	Z18	X19	Y19	Z19	X20	Y20	Z20	X21	Y21	Z21	X22	Y22	Z22	X23	Y23	Z23	X24	Y24	Z24	X25	Y25	Z25	X26	Y26	Z26	X27	Y27	Z27	X28	Y28	Z28	X29	Y29	Z29	X30	Y30	Z30	X31	Y31	Z31	X32	Y32	Z32	X33	Y33	Z33	X34	Y34	Z34	X35	Y35	Z35	X36	Y36	Z36	X37	Y37	Z37	X38	Y38	Z38	X39	Y39	Z39	X40	Y40	Z40	X41	Y41	Z41	X42	Y42	Z42	X43	Y43	Z43	X44	Y44	Z44	X45	Y45	Z45	X46	Y46	Z46	X47	Y47	Z47	X48	Y48	Z48	X49	Y49	Z49	X50	Y50	Z50	X51	Y51	Z51	X52	Y52	Z52	X53	Y53	Z53	

217	2.16	-285.6626892089844	960.664794921875	-177.9503784179688	-182.4980926513672	967.15869140625	-261.8030090332031	-234.9096374511719	1049.417236328125	-212.52001953125	-103.8990249633789	1194.118041992188	-3.599250555038452	-230.6829833984375	1151.79638671875	-217.1300659179688	-199.6659393310547	1400.2890625	-183.6842041015625	-130.4473571777344	1314.569702148438	-46.32818984985352	-280.5379028320312	1256.112182617188	-194.3260345458984	-115.8799209594727	1364.466552734375	-247.1421356201172	-30.94378089904785	1376.56103515625	-192.4405822753906	25.7618522644043	1266.923950195312	-251.6028289794922	72.55325317382812	1075.373413085938	-266.1101989746094	-7.207640171051025	1047.564086914062	-284.8922424316406	126.9855575561523	872.4132690429688	-162.9614410400391	147.8114929199219	859.7234497070312	-242.253173828125	104.7604751586914	975.4338989257812	-260.9043273925781	173.632080078125	698.4638061523438	-166.4898529052734	171.3955688476562	781.5844116210938	-225.25439453125	175.4747009277344	784.3515014648438	-160.3581848144531	-308.7754211425781	1375.851684570312	-55.04948806762695	-368.55078125	1313.087158203125	-46.85623550415039	-413.5887145996094	1054.482177734375	-67.6453857421875	-333.0330505371094	1047.182983398438	-119.0167770385742	-361.7711791992188	819.0932006835938	9.531463623046875	-432.1390991210938	819.4324951171875	-13.45533657073975	-424.0455017089844	985.7085571289062	-49.40387725830078	-389.970703125	649.0674438476562	-22.05910301208496	-389.7004089355469	712.394287109375	14.51801013946533	-442.475830078125	733.400634765625	-22.51456451416016	-263.1895751953125	1576.021606445312	-116.672981262207	-77.43373107910156	1596.428588867188	-54.39750289916992	-188.1850128173828	1595.665649414062	-6.434043407440186	-124.2991943359375	1573.378784179688	-194.5430603027344	-37.56935501098633	966.934326171875	-259.6304016113281	-323.6197509765625	930.8649291992188	-42.85789489746094	-198.7807922363281	945.3585205078125	29.14592170715332	-1.176828265190125	960.3723754882812	-141.6927642822266	12.4924488067627	471.7391662597656	-173.8771209716797	8.060546875	614.01953125	-200.2071685791016	-69.38068389892578	42.91513061523438	-269.0560913085938	-15.93842124938965	240.9472961425781	-222.7571411132812	8.307513236999512	36.0792236328125	-58.39728546142578	-65.31548309326172	34.1442756652832	-104.6025009155273	13.8419189453125	41.97052764892578	-173.7678527832031	-136.9431915283203	36.91383743286133	-268.6913452148438	-157.9902954101562	471.7804870605469	64.56984710693359	-225.9374084472656	716.75390625	47.563720703125	-326.2651062011719	158.310546875	-178.7049713134766	-180.0430450439453	359.9794616699219	13.72351264953613	-182.0836334228516	45.24277114868164	-152.480224609375	-205.4155120849609	99.33907318115234	-202.9806213378906	-288.0623474121094	88.10913848876953	-146.5063171386719	-331.0859985351562	207.3110046386719	-255.6980285644531	
218	2.17	-278.9405822753906	961.8240356445312	-172.8751220703125	-174.9800109863281	968.0869750976562	-255.6369171142578	-228.0528411865234	1050.36572265625	-207.9542236328125	-98.39810180664062	1195.70263671875	3.330208301544189	-223.5822906494141	1153.195922851562	-212.3367462158203	-192.0026092529297	1401.47998046875	-177.8146362304688	-124.6056365966797	1316.263061523438	-39.63163757324219	-272.4229736328125	1257.38037109375	-189.9909973144531	-107.5325775146484	1365.843994140625	-240.3033447265625	-23.35262298583984	1378.223022460938	-184.5171356201172	34.40065765380859	1268.565673828125	-242.5474700927734	82.74668884277344	1077.561279296875	-254.9461669921875	3.573463916778564	1048.687744140625	-274.4784545898438	140.2987213134766	878.7035522460938	-147.1504821777344	162.458984375	864.7753295898438	-225.8291168212891	116.7711410522461	978.7542724609375	-247.8490905761719	192.4537506103516	706.2234497070312	-146.2221832275391	188.2695465087891	788.0228881835938	-206.7863311767578	191.3906860351562	792.2938232421875	-141.9535980224609	-303.0031127929688	1376.997192382812	-50.92745971679688	-363.0216979980469	1314.609985351562	-44.07042694091797	-408.6963195800781	1056.554443359375	-68.53421783447266	-327.1309204101562	1049.449096679688	-118.0362167358398	-359.5238952636719	820.0219116210938	7.350509643554688	-429.4478149414062	820.7980346679688	-17.02127265930176	-419.6810302734375	987.5698852539062	-51.05998229980469	-387.1915283203125	650.30419921875	-26.50756645202637	-387.6189880371094	713.204345703125	10.70151424407959	-439.6886596679688	734.844482421875	-27.47951889038086	-255.8190307617188	1577.666381835938	-110.443977355957	-70.81365966796875	1596.950805664062	-45.77932739257812	-182.1138458251953	1596.337280273438	0.8271476626396179	-116.0328674316406	1574.998413085938	-186.6356353759766	-30.09892845153809	967.56787109375	-252.6775665283203	-317.1838684082031	933.502197265625	-37.06685638427734	-193.2107696533203	947.5381469726562	34.63108825683594	5.955894947052002	960.9154663085938	-134.5329742431641	14.49962997436523	471.3144836425781	-173.3602752685547	11.78240489959717	614.1219482421875	-197.0959777832031	-69.39695739746094	43.01154708862305	-269.01708984375	-15.34321880340576	240.8272705078125	-222.7530059814453	8.331212043762207	36.07595062255859	-58.38434982299805	-65.30594635009766	34.17172622680664	-104.552375793457	13.76312160491943	42.05929183959961	-173.6846313476562	-137.0691528320312	37.03325653076172	-268.6671142578125	-147.8708190917969	477.1154174804688	78.31092071533203	-219.63330078125	721.1522827148438	56.55489349365234	-302.5265808105469	153.2559509277344	-159.7652130126953	-166.5026397705078	363.4539794921875	29.64776992797852	-156.4933013916016	45.59115982055664	-123.2467193603516	-179.8350830078125	95.91060638427734	-177.2205200195312	-263.4582824707031	86.29936981201172	-122.3833236694336	-306.5093688964844	198.0055236816406	-239.3186950683594	
219	2.18	-272.1986083984375	962.79638671875	-167.6970977783203	-167.4975738525391	968.9240112304688	-249.3796997070312	-221.1146240234375	1051.130126953125	-203.1185150146484	-92.86728668212891	1197.066162109375	10.19256591796875	-216.5794982910156	1154.320068359375	-207.3911285400391	-184.4915008544922	1402.41748046875	-171.941650390625	-118.8047637939453	1317.737915039062	-32.98235321044922	-264.4837036132812	1258.411254882812	-185.5646667480469	-99.38910675048828	1366.961547851562	-233.5089569091797	-15.96539211273193	1379.692993164062	-176.7441558837891	42.76981353759766	1270.046630859375	-233.7744140625	92.52730560302734	1079.553100585938	-244.0765075683594	13.90084552764893	1049.6162109375	-264.1007690429688	153.0547485351562	885.2167358398438	-131.2974548339844	176.5998840332031	869.9249877929688	-209.2647552490234	128.2787170410156	981.9954223632812	-234.9073333740234	210.3562622070312	714.42919921875	-125.3871383666992	204.4610290527344	794.6129760742188	-187.9878234863281	206.5753784179688	800.5536499023438	-123.2763900756836	-297.2273254394531	1377.931640625	-46.75019836425781	-357.4244384765625	1315.947509765625	-41.16364669799805	-403.6858520507812	1058.499389648438	-69.31534576416016	-321.0586853027344	1051.517822265625	-116.9185943603516	-357.103515625	821.0060424804688	5.451802253723145	-426.5518798828125	822.10546875	-20.27475738525391	-415.2532043457031	989.3177490234375	-52.61008453369141	-384.0892944335938	651.48486328125	-30.51671028137207	-385.2286987304688	713.9789428710938	7.226478099822998	-436.5975036621094	736.1643676757812	-32.01787948608398	-248.5565338134766	1579.111694335938	-104.1227645874023	-64.28450775146484	1597.195190429688	-37.16068267822266	-176.1158905029297	1596.70556640625	8.132905960083008	-107.9301681518555	1576.450439453125	-178.7008972167969	-22.67786598205566	968.115234375	-245.6122436523438	-310.9031372070312	935.625244140625	-31.5183048248291	-187.6946411132812	949.43701171875	40.29219055175781	13.02047920227051	961.28857421875	-127.2236785888672	16.55669593811035	470.9253845214844	-173.1199951171875	15.50862693786621	614.20458984375	-194.1636047363281	-69.39805603027344	43.08361053466797	-268.9913940429688	-14.73613357543945	240.7289581298828	-222.9388732910156	8.383455276489258	36.07965469360352	-58.41543579101562	-65.29402160644531	34.20743560791016	-104.5380401611328	13.72445869445801	42.09978866577148	-173.6587219238281	-137.1360931396484	37.17793655395508	-268.6494140625	-138.2643127441406	482.1058044433594	91.56649780273438	-213.578369140625	725.259033203125	65.35520935058594	-278.7360229492188	147.3593902587891	-140.0610504150391	-153.3531951904297	366.4846801757812	45.43729019165039	-131.3462371826172	45.76556396484375	-93.31086730957031	-154.3380126953125	92.17596435546875	-150.53076171875	-239.0424041748047	83.98748779296875	-97.56581878662109	-281.5813598632812	187.7076416015625	-221.8275604248047	
220	2.19	-265.4289855957031	963.5631103515625	-162.4051971435547	-160.0590362548828	969.6482543945312	-243.0378570556641	-214.0523834228516	1051.690185546875	-197.9786682128906	-87.31941223144531	1198.146362304688	17.01235961914062	-209.6199951171875	1155.138671875	-202.2966461181641	-177.1136779785156	1403.07568359375	-166.0490570068359	-113.0406188964844	1318.920776367188	-26.35943222045898	-256.7273559570312	1259.18603515625	-181.0433044433594	-91.42208862304688	1367.788940429688	-226.7375030517578	-8.746576309204102	1380.911376953125	-169.0853118896484	50.90480041503906	1271.294921875	-225.2372741699219	101.9461288452148	1081.28466796875	-233.5033569335938	23.81830596923828	1050.286865234375	-253.7946319580078	165.2762603759766	891.9102783203125	-115.4645080566406	190.2168121337891	875.10693359375	-192.6245269775391	139.3109588623047	985.0905151367188	-222.1044006347656	227.3099060058594	723.0430908203125	-104.041877746582	219.9400634765625	801.29443359375	-168.9188842773438	221.0206451416016	809.07763671875	-104.4084701538086	-291.4421997070312	1378.61376953125	-42.49532318115234	-351.7395935058594	1317.045288085938	-38.11252975463867	-398.5252990722656	1060.253173828125	-69.91943359375	-314.8451538085938	1053.329711914062	-115.6376800537109	-354.5214538574219	821.95556640625	3.854974269866943	-423.4484252929688	823.283935546875	-23.19032859802246	-410.7593078613281	990.8952026367188	-54.01079177856445	-380.6773071289062	652.5470581054688	-34.08983612060547	-382.5726013183594	714.63916015625	4.09055233001709	-433.2322692871094	737.3123168945312	-36.14849472045898	-241.4040222167969	1580.30810546875	-97.71707916259766	-57.84278106689453	1597.144165039062	-28.55830192565918	-170.184326171875	1596.753295898438	15.47244930267334	-99.98833465576172	1577.685913085938	-170.7500305175781	-15.30420589447021	968.5409545898438	-238.4528656005859	-304.7642517089844	937.1943359375	-26.21285438537598	-182.2278137207031	950.99609375	46.11983489990234	20.02245140075684	961.4591064453125	-119.7868118286133	18.68701171875	470.5545959472656	-173.0718078613281	19.24760818481445	614.2422485351562	-191.3847961425781	-69.38772583007812	43.12788772583008	-268.9837036132812	-14.07868766784668	240.6490478515625	-223.2646789550781	8.456021308898926	36.08467864990234	-58.49848937988281	-65.28280639648438	34.25138092041016	-104.5607147216797	13.72063541412354	42.09024810791016	-173.6923370361328	-137.1345672607422	37.33404159545898	-268.63818359375	-129.1212158203125	486.6434631347656	104.3228759765625	-207.7432250976562	728.9937744140625	73.96153259277344	-254.9362182617188	140.7372131347656	-119.5255126953125	-140.5750885009766	369.0254821777344	61.07331848144531	-106.708740234375	45.83236694335938	-62.69815826416016	-129.0203094482422	88.23130798339844	-122.9550704956055	-214.8859100341797	81.25155639648438	-72.05750274658203	-256.341064453125	176.5685577392578	-203.1537170410156	
